<svg width="149" height="20" viewBox="0 0 149 20" fill="none" xmlns="http://www.w3.org/2000/svg">
<g clip-path="url(#clip0_2648_31604)">
<path fill-rule="evenodd" clip-rule="evenodd" d="M19.2857 0H0V20H6.07143V15H17.1429C17.9318 15 18.5714 15.6396 18.5714 16.4286V20H25V15.7341C25 13.8929 23.6156 12.3462 21.7857 12.1429C23.5609 12.1429 25 10.7038 25 8.92857V5L19.2857 0ZM6.07143 10V5H17.5C17.5 5 18.9286 5.35714 18.9286 7.5C18.9286 9.64286 17.5 10 17.5 10H6.07143Z" fill="#202337"/>
<path d="M21.7857 0L27.5 5H34.6429V20H40V5H48.2143V0H21.7857Z" fill="#202337"/>
<path d="M51.7857 13.9286L48.2143 10.3571L51.7857 6.78571L55.3571 10.3571L51.7857 13.9286Z" fill="#202337"/>
<path d="M53.5714 6.78571H56.7857L60.3571 10.3571L56.7857 13.9286H53.5714L57.1429 10.3571L53.5714 6.78571Z" fill="#202337"/>
<path d="M70.3571 0H65V20H70.3571V12.1429H83.2143V20H88.9286V0H83.2143V7.14286H70.3571V0Z" fill="#202337"/>
<path d="M99.2857 0H93.5714V14.2857C93.5714 17.4416 96.1298 20 99.2857 20H111.429C114.584 20 117.143 17.4416 117.143 14.2857V0H111.429V12.8605C111.429 14.044 110.469 15 109.286 15H101.429C100.245 15 99.2857 14.0406 99.2857 12.8571V0Z" fill="#202337"/>
<path fill-rule="evenodd" clip-rule="evenodd" d="M121.429 0H140.886C141.246 0 141.604 0.0507646 141.928 0.208099C142.91 0.685818 145 2.06848 145 5.18519C145 9.25926 142.79 10 142.79 10L142.776 10.0033C142.876 10.0085 142.976 10.0212 143.072 10.0498C143.737 10.2464 145.714 11.1687 145.714 15.1852C145.714 20.0132 141.071 20 141.071 20H121.429V0ZM127.143 7.85714V4.28571H137.396C137.702 4.28571 138.011 4.31824 138.283 4.45955C138.73 4.69262 139.37 5.19132 139.37 6.13757C139.37 7.59259 137.857 7.85714 137.857 7.85714H127.143ZM127.143 12.1429H138.027C138.333 12.1429 138.642 12.1754 138.913 12.3167C139.36 12.5498 140 13.0485 140 13.9947C140 15.4497 138.487 15.7143 138.487 15.7143H127.143V12.1429Z" fill="#202337"/>
<path fill-rule="evenodd" clip-rule="evenodd" d="M146.211 2.52587V0.714286H146.926C147.062 0.714286 147.179 0.738759 147.276 0.787705C147.373 0.836061 147.447 0.904762 147.498 0.993808C147.549 1.08226 147.575 1.18635 147.575 1.30606C147.575 1.42636 147.549 1.52985 147.497 1.61654C147.445 1.70264 147.37 1.76869 147.272 1.81468C147.269 1.81607 147.266 1.81744 147.263 1.81879L147.255 1.82209L147.64 2.52587H147.217L146.874 1.88368H146.594V2.52587H146.211ZM146.854 1.57585H146.594V1.02742H146.852C146.926 1.02742 146.987 1.03833 147.035 1.06015C147.084 1.08138 147.121 1.11263 147.144 1.15391C147.168 1.19519 147.18 1.24591 147.18 1.30606C147.18 1.36562 147.168 1.41545 147.144 1.45555C147.121 1.49565 147.085 1.52573 147.036 1.54578C146.988 1.56583 146.927 1.57585 146.854 1.57585Z" fill="#202337"/>
<path fill-rule="evenodd" clip-rule="evenodd" d="M146.871 3.40123C147.81 3.40123 148.571 2.63984 148.571 1.70061C148.571 0.761391 147.81 0 146.871 0C145.932 0 145.17 0.761391 145.17 1.70061C145.17 2.63984 145.932 3.40123 146.871 3.40123ZM146.871 3.15123C147.672 3.15123 148.321 2.50177 148.321 1.70061C148.321 0.899462 147.672 0.25 146.871 0.25C146.07 0.25 145.42 0.899462 145.42 1.70061C145.42 2.50177 146.07 3.15123 146.871 3.15123Z" fill="#202337"/>
</g>
<defs>
<clipPath id="clip0_2648_31604">
<rect width="148.571" height="20" fill="white"/>
</clipPath>
</defs>
</svg>
